name Run_50002_IK.mot
datacolumns 164
datarows 4
range 1.77 1.8
endheader
time	         pelvis_tilt	         pelvis_list	     pelvis_rotation	           pelvis_tx	           pelvis_ty	           pelvis_tz	       hip_flexion_r	     hip_adduction_r	      hip_rotation_r	        knee_angle_r	       ankle_angle_r	       hip_flexion_l	     hip_adduction_l	      hip_rotation_l	        knee_angle_l	       ankle_angle_l	    lumbar_extension	      lumbar_bending	     lumbar_rotation	          arm_flex_r	           arm_add_r	           arm_rot_r	        elbow_flex_r	           pro_sup_r	          arm_flex_l	           arm_add_l	           arm_rot_l	        elbow_flex_l	           pro_sup_l	    subtalar_angle_r	         mtp_angle_r	    subtalar_angle_l	         mtp_angle_l	        wrist_flex_r	         wrist_dev_r	        wrist_flex_l	         wrist_dev_l	             LASI_tx	             LASI_ty	             LASI_tz	             RASI_tx	             RASI_ty	             RASI_tz	             LPSI_tx	             LPSI_ty	             LPSI_tz	             RPSI_tx	             RPSI_ty	             RPSI_tz	             RTH1_tx	             RTH1_ty	             RTH1_tz	             RTH2_tx	             RTH2_ty	             RTH2_tz	             RTH3_tx	             RTH3_ty	             RTH3_tz	             LTH1_tx	             LTH1_ty	             LTH1_tz	             LTH2_tx	             LTH2_ty	             LTH2_tz	             LTH3_tx	             LTH3_ty	             LTH3_tz	             RTB1_tx	             RTB1_ty	             RTB1_tz	             RTB2_tx	             RTB2_ty	             RTB2_tz	             RTB3_tx	             RTB3_ty	             RTB3_tz	             LTB1_tx	             LTB1_ty	             LTB1_tz	             LTB2_tx	             LTB2_ty	             LTB2_tz	             LTB3_tx	             LTB3_ty	             LTB3_tz	             RCAL_tx	             RCAL_ty	             RCAL_tz	             RTOE_tx	             RTOE_ty	             RTOE_tz	             RMT5_tx	             RMT5_ty	             RMT5_tz	             LCAL_tx	             LCAL_ty	             LCAL_tz	             LTOE_tx	             LTOE_ty	             LTOE_tz	             LMT5_tx	             LMT5_ty	             LMT5_tz	             LACR_tx	             LACR_ty	             LACR_tz	             RACR_tx	             RACR_ty	             RACR_tz	             CLAV_tx	             CLAV_ty	             CLAV_tz	               C7_tx	               C7_ty	               C7_tz	             RUA1_tx	             RUA1_ty	             RUA1_tz	             RUA2_tx	             RUA2_ty	             RUA2_tz	             RUA3_tx	             RUA3_ty	             RUA3_tz	             RLEL_tx	             RLEL_ty	             RLEL_tz	             RMEL_tx	             RMEL_ty	             RMEL_tz	             LUA1_tx	             LUA1_ty	             LUA1_tz	             LUA2_tx	             LUA2_ty	             LUA2_tz	             LUA3_tx	             LUA3_ty	             LUA3_tz	             LLEL_tx	             LLEL_ty	             LLEL_tz	             LMEL_tx	             LMEL_ty	             LMEL_tz	      RFAsuperior_tx	      RFAsuperior_ty	      RFAsuperior_tz	        RFAradius_tx	        RFAradius_ty	        RFAradius_tz	          RFAulna_tx	          RFAulna_ty	          RFAulna_tz	      LFAsuperior_tx	      LFAsuperior_ty	      LFAsuperior_tz	        LFAradius_tx	        LFAradius_ty	        LFAradius_tz	          LFAulna_tx	          LFAulna_ty	          LFAulna_tz	
1.77	        -12.82904870	         -6.40902289	        -11.63043124	          1.01886588	          1.01867190	         -0.34046050	         41.48462250	         16.56988220	          3.76197213	        -17.37486705	         -9.70268897	         -7.44161770	         -0.78067205	         -5.92646053	        -64.52949275	        -20.98827123	          3.31885432	          8.85939680	         -6.72894083	        -54.32507826	        -20.54619545	        -20.56380780	        113.89561339	         96.66289317	        -27.79180248	        -12.21785523	        -12.36610254	        140.48404081	        102.59586949	          0.00000000	          0.00000000	          0.00000000	          0.00000000	          0.00000000	          0.00000000	          0.00000000	          0.00000000	          1.05989552	          1.03638102	         -0.46978095	          1.00988333	          1.07281336	         -0.23244211	          0.89391451	          1.10622787	         -0.44025513	          0.86657176	          1.11341872	         -0.32882573	          0.95726077	          0.96091160	         -0.17104223	          0.97706247	          0.80259069	         -0.19732402	          1.08616873	          0.68807785	         -0.20481498	          0.98086158	          0.89940832	         -0.51917873	          0.84818242	          0.79073728	         -0.48431684	          0.84221198	          0.64673470	         -0.46852371	          1.23087480	          0.47388067	         -0.28053613	          1.16112748	          0.40598999	         -0.22159921	          1.24833712	          0.28768476	         -0.30869854	          0.70246366	          0.46950257	         -0.40699752	          0.58429148	          0.53146324	         -0.47071026	          0.48331188	          0.45506634	         -0.42675567	          1.16011557	          0.14072290	         -0.31573676	          1.39195684	          0.16554763	         -0.37579829	          1.36649615	          0.10185929	         -0.28940965	          0.36514877	          0.56122313	         -0.41968547	          0.29003874	          0.33618225	         -0.40804098	          0.26478500	          0.38813288	         -0.50363262	          1.02837124	          1.55229087	         -0.51734117	          0.96700765	          1.53345273	         -0.20559908	          1.05121955	          1.49789811	         -0.31525836	          0.94165915	          1.56559099	         -0.37656010	          0.82331157	          1.49283070	         -0.19496857	          0.82657555	          1.43507197	         -0.13762569	          0.72228185	          1.40895551	         -0.13186814	          0.66068752	          1.36757771	         -0.11940306	          0.67940674	          1.32748391	         -0.19936707	          0.95389534	          1.45028246	         -0.59561723	          0.99376830	          1.37670542	         -0.61011271	          0.93357590	          1.30596092	         -0.65122563	          0.92852166	          1.23749352	         -0.67098000	          0.89459727	          1.21447604	         -0.58656204	          0.72539505	          1.28621466	         -0.08462432	          0.88302718	          1.20349439	         -0.11008930	          0.83431462	          1.16103491	         -0.08785004	          1.00326546	          1.22402067	         -0.63837812	          1.11570340	          1.31003839	         -0.51249190	          1.14701467	          1.24731228	         -0.53265708	
1.78	        -12.78866450	         -6.83572248	        -11.71557352	          1.01821996	          1.01370760	         -0.33987054	         40.00432009	         17.01884374	          2.48144717	        -16.30766806	        -10.90166644	         -5.07670213	         -2.07569489	         -6.41578049	        -72.18258558	        -18.98801874	          2.91670234	          9.43899754	         -6.26819993	        -53.14494420	        -20.55789678	        -20.22427642	        114.72816214	         96.96281067	        -28.43241201	        -12.57408819	        -11.89984364	        138.05992934	        102.28493708	          0.00000000	          0.00000000	          0.00000000	          0.00000000	          0.00000000	          0.00000000	          0.00000000	          0.00000000	          1.05945637	          1.03066566	         -0.46983085	          1.00856494	          1.06872554	         -0.23224326	          0.89348671	          1.10055428	         -0.44023404	          0.86589927	          1.10851809	         -0.32917411	          0.95482923	          0.95472493	         -0.17138241	          0.97095459	          0.79605688	         -0.19753627	          1.07801238	          0.67915920	         -0.20594287	          0.98195181	          0.89462938	         -0.51892222	          0.85310195	          0.78213824	         -0.48179325	          0.85312650	          0.63804575	         -0.46997991	          1.21990839	          0.46341100	         -0.28070749	          1.14779095	          0.39465184	         -0.22557200	          1.23744356	          0.27731428	         -0.31124133	          0.71572093	          0.46547740	         -0.41054673	          0.60277655	          0.53960238	         -0.47033441	          0.49614159	          0.46962487	         -0.43010138	          1.14811753	          0.13180457	         -0.32308167	          1.38161627	          0.15323447	         -0.37690514	          1.35258299	          0.08626735	         -0.29419523	          0.38557604	          0.58448445	         -0.41576863	          0.29694533	          0.36404429	         -0.42096649	          0.27785213	          0.42382548	         -0.51360527	          1.02846265	          1.54741429	         -0.51636257	          0.96898522	          1.52711735	         -0.20423931	          1.05260536	          1.49242314	         -0.31455050	          0.94214424	          1.56113502	         -0.37505623	          0.82499964	          1.48542372	         -0.19250764	          0.82949967	          1.42715155	         -0.13538033	          0.72570891	          1.39938074	         -0.12866355	          0.66500739	          1.35663291	         -0.11587628	          0.68293594	          1.31749558	         -0.19623282	          0.95248456	          1.44730905	         -0.59497626	          0.99205959	          1.37360100	         -0.61049141	          0.93117820	          1.30412733	         -0.65207011	          0.92529276	          1.23584339	         -0.67239311	          0.89036667	          1.21280596	         -0.58905463	          0.73259243	          1.27732199	         -0.08231107	          0.89204704	          1.19913700	         -0.11014206	          0.84493270	          1.15534960	         -0.08699784	          0.99920710	          1.21764266	         -0.64082333	          1.11696277	          1.29401055	         -0.51279389	          1.14408728	          1.23010868	         -0.53470210	
1.79	        -12.84198553	         -6.95461252	        -11.77425658	          1.01731685	          1.00757428	         -0.33990453	         38.95049225	         17.02439330	          0.93841234	        -16.74521749	        -12.13194808	         -2.39495630	         -2.99813202	         -6.62599527	        -79.46798191	        -16.11320499	          2.74588883	          9.76019770	         -5.56285618	        -51.87388194	        -20.61227626	        -19.83769500	        115.39907896	         97.20955484	        -28.95233939	        -12.98310262	        -11.17188834	        135.20625624	        102.08831670	          0.00000000	          0.00000000	          0.00000000	          0.00000000	          0.00000000	          0.00000000	          0.00000000	          0.00000000	          1.05885197	          1.02456460	         -0.46997333	          1.00731271	          1.06313015	         -0.23224834	          0.89292388	          1.09448878	         -0.44033330	          0.86528729	          1.10262255	         -0.32939540	          0.95155390	          0.94785407	         -0.17165040	          0.96469682	          0.78874495	         -0.19961354	          1.07009058	          0.67056245	         -0.20825301	          0.98326622	          0.88906468	         -0.51907946	          0.85819460	          0.77269848	         -0.47925064	          0.86518220	          0.62845573	         -0.47194235	          1.20734771	          0.45086138	         -0.28063407	          1.13225854	          0.38299931	         -0.22840021	          1.22170226	          0.26418133	         -0.31242505	          0.73133258	          0.46091159	         -0.41496263	          0.62406435	          0.54545936	         -0.47082853	          0.51267038	          0.48200318	         -0.43324794	          1.12833056	          0.12284742	         -0.32835326	          1.36363137	          0.13423948	         -0.37594071	          1.32946102	          0.06721402	         -0.29568228	          0.40770465	          0.60450700	         -0.41293811	          0.31141775	          0.38797200	         -0.43062776	          0.29809441	          0.45268050	         -0.52137434	          1.02741937	          1.54148364	         -0.51576579	          0.97086690	          1.51967177	         -0.20241445	          1.05395222	          1.48636872	         -0.31376866	          0.94218713	          1.55551760	         -0.37320258	          0.82680371	          1.47624008	         -0.18872835	          0.83313866	          1.41731613	         -0.13216148	          0.72981480	          1.38790822	         -0.12414428	          0.67019784	          1.34384178	         -0.11083523	          0.68769368	          1.30551637	         -0.19148929	          0.94990113	          1.44270628	         -0.59425711	          0.98926042	          1.36900260	         -0.61110567	          0.92775890	          1.30086006	         -0.65305212	          0.92094630	          1.23295309	         -0.67378768	          0.88497731	          1.20985002	         -0.59156450	          0.74071538	          1.26664098	         -0.07886393	          0.90185787	          1.19330972	         -0.10995561	          0.85656100	          1.14813172	         -0.08578699	          0.99393675	          1.20954838	         -0.64344451	          1.11669913	          1.27540159	         -0.51379615	          1.13958018	          1.21071406	         -0.53768052	
1.8	        -13.00002521	         -6.84473263	        -11.76125602	          1.01606535	          1.00041862	         -0.34073669	         38.15904997	         16.69154100	         -0.13953752	        -18.45811738	        -12.15301633	          0.65887466	         -3.64114805	         -6.62668809	        -86.39454597	        -12.62055231	          2.75992563	          9.92598095	         -4.65126024	        -50.47765046	        -20.72503179	        -19.39759461	        115.86472650	         97.30570416	        -29.32102597	        -13.42629543	        -10.14225039	        131.95840995	        102.00902032	          0.00000000	          0.00000000	          0.00000000	          0.00000000	          0.00000000	          0.00000000	          0.00000000	          0.00000000	          1.05785913	          1.01822577	         -0.47047379	          1.00645235	          1.05603655	         -0.23333232	          0.89201381	          1.08801867	         -0.44074168	          0.86474046	          1.09568901	         -0.32967158	          0.94785050	          0.93984009	         -0.17270721	          0.95837907	          0.78056923	         -0.20294753	          1.06213211	          0.66130964	         -0.21047653	          0.98486640	          0.88304639	         -0.51974763	          0.86416225	          0.76239446	         -0.47724394	          0.87845038	          0.61813932	         -0.47433156	          1.19303766	          0.43602074	         -0.28066418	          1.11479047	          0.37091561	         -0.22979998	          1.19977052	          0.24868808	         -0.31323154	          0.74930107	          0.45564450	         -0.41989163	          0.64779706	          0.54906106	         -0.47219524	          0.53253330	          0.49187625	         -0.43645385	          1.09940209	          0.11400925	         -0.33141535	          1.33590274	          0.11182425	         -0.37572369	          1.29704370	          0.05008225	         -0.29466093	          0.43139585	          0.62151779	         -0.41183261	          0.33258106	          0.40699130	         -0.43718162	          0.32299943	          0.47413373	         -0.52684981	          1.02547181	          1.53473503	         -0.51532945	          0.97291613	          1.51127818	         -0.20026602	          1.05523530	          1.47977533	         -0.31309414	          0.94188257	          1.54879672	         -0.37110265	          0.82902906	          1.46544334	         -0.18360067	          0.83774680	          1.40575561	         -0.12809352	          0.73491559	          1.37470852	         -0.11825142	          0.67662199	          1.32933053	         -0.10420256	          0.69430849	          1.29168590	         -0.18545894	          0.94622981	          1.43681978	         -0.59321060	          0.98534331	          1.36324856	         -0.61180601	          0.92342802	          1.29638690	         -0.65397662	          0.91548873	          1.22914800	         -0.67514934	          0.87844921	          1.20594224	         -0.59411035	          0.75002220	          1.25410097	         -0.07428676	          0.91259708	          1.18587673	         -0.10962793	          0.86926156	          1.13923490	         -0.08450210	          0.98738766	          1.20010721	         -0.64614771	          1.11473304	          1.25453889	         -0.51543066	          1.13336853	          1.18937406	         -0.54146216	
